<svg width="32" height="32" viewBox="0 0 32 32" fill="none" xmlns="http://www.w3.org/2000/svg">
<path d="M10.6641 10.6667H21.3307M10.6641 14.6667H21.3307M25.3307 21.3333H21.9641C21.5641 21.3333 21.1807 21.5167 20.9307 21.8333L17.0307 26.7C16.4974 27.3667 15.4807 27.3667 14.9474 26.7L11.0474 21.8333C10.7974 21.5167 10.4141 21.3333 10.0141 21.3333H6.66406C4.4474 21.3333 2.66406 19.55 2.66406 17.3333V8C2.66406 5.78333 4.4474 4 6.66406 4H25.3307C27.5474 4 29.3307 5.78333 29.3307 8V17.3333C29.3307 19.55 27.5474 21.3333 25.3307 21.3333Z" stroke="#D20000" stroke-width="1.5" stroke-miterlimit="10" stroke-linecap="round" stroke-linejoin="round"/>
</svg>
