<svg width="24" height="25" viewBox="0 0 24 25" fill="none" xmlns="http://www.w3.org/2000/svg">
<path d="M12 23.25C6.07 23.25 1.25 18.43 1.25 12.5C1.25 6.57 6.07 1.75 12 1.75C17.93 1.75 22.75 6.57 22.75 12.5C22.75 18.43 17.93 23.25 12 23.25ZM12 3.25C6.9 3.25 2.75 7.4 2.75 12.5C2.75 17.6 6.9 21.75 12 21.75C17.1 21.75 21.25 17.6 21.25 12.5C21.25 7.4 17.1 3.25 12 3.25Z" fill="#D20000"/>
<path d="M10.5814 16.08C10.3814 16.08 10.1914 16 10.0514 15.86L7.22141 13.03C6.93141 12.74 6.93141 12.26 7.22141 11.97C7.51141 11.68 7.99141 11.68 8.28141 11.97L10.5814 14.27L15.7214 9.12998C16.0114 8.83998 16.4914 8.83998 16.7814 9.12998C17.0714 9.41998 17.0714 9.89998 16.7814 10.19L11.1114 15.86C10.9714 16 10.7814 16.08 10.5814 16.08Z" fill="#D20000"/>
</svg>
